<svg xmlns="http://www.w3.org/2000/svg" width="800" height="600" viewBox="0 0 800 600" role="img" aria-label="A retro browser window on a personal homepage">
  <defs>
    <linearGradient id="c1bg" x1="0" y1="0" x2="1" y2="1">
      <stop offset="0" stop-color="#000080"/><stop offset="1" stop-color="#00c0c0"/>
    </linearGradient>
    <linearGradient id="c1bar" x1="0" y1="0" x2="1" y2="0">
      <stop offset="0" stop-color="#000080"/><stop offset="1" stop-color="#008080"/>
    </linearGradient>
  </defs>
  <rect width="800" height="600" fill="url(#c1bg)"/>
  <g fill="#fff" opacity="0.15">
    <circle cx="60" cy="60" r="4"/><circle cx="120" cy="60" r="4"/><circle cx="180" cy="60" r="4"/>
    <circle cx="60" cy="120" r="4"/><circle cx="120" cy="120" r="4"/><circle cx="180" cy="120" r="4"/>
    <circle cx="640" cy="500" r="4"/><circle cx="700" cy="500" r="4"/><circle cx="760" cy="500" r="4"/>
    <circle cx="640" cy="550" r="4"/><circle cx="700" cy="550" r="4"/><circle cx="760" cy="550" r="4"/>
  </g>

  <rect x="70" y="90" width="660" height="430" fill="#c0c0c0" stroke="#000" stroke-width="5"/>
  <rect x="70" y="90" width="660" height="36" fill="url(#c1bar)" stroke="#000" stroke-width="5"/>
  <text x="88" y="115" font-family="Verdana,sans-serif" font-size="15" font-weight="bold" fill="#fff">Netscape Navigator — my_homepage.html</text>
  <g>
    <rect x="640" y="100" width="18" height="16" fill="#c0c0c0" stroke="#000" stroke-width="2"/>
    <rect x="664" y="100" width="18" height="16" fill="#c0c0c0" stroke="#000" stroke-width="2"/>
    <rect x="688" y="100" width="18" height="16" fill="#ff8c8c" stroke="#000" stroke-width="2"/>
  </g>

  <rect x="90" y="145" width="620" height="40" fill="#fff" stroke="#000" stroke-width="3"/>
  <text x="104" y="172" font-family="'Courier New',monospace" font-size="18" fill="#0000ee">http://www.geocities.com/myhomepage/</text>

  <rect x="90" y="205" width="620" height="295" fill="#fff" stroke="#000" stroke-width="4"/>
  <text x="112" y="250" font-family="'Trebuchet MS',Verdana,sans-serif" font-size="30" font-weight="bold" fill="#000080">Welcome to my Homepage!</text>
  <g fill="#c9c9c9">
    <rect x="112" y="272" width="560" height="11"/><rect x="112" y="294" width="520" height="11"/>
    <rect x="112" y="316" width="470" height="11"/><rect x="112" y="338" width="540" height="11"/>
  </g>
  <rect x="112" y="372" width="150" height="44" fill="#ffcc00" stroke="#000" stroke-width="4"/>
  <rect x="286" y="372" width="150" height="44" fill="#ff2d95" stroke="#000" stroke-width="4"/>
  <rect x="460" y="372" width="150" height="44" fill="#00c0c0" stroke="#000" stroke-width="4"/>
  <text x="187" y="401" font-family="Verdana,sans-serif" font-size="14" font-weight="bold" fill="#000" text-anchor="middle">GUESTBOOK</text>
  <text x="361" y="401" font-family="Verdana,sans-serif" font-size="14" font-weight="bold" fill="#fff" text-anchor="middle">MY LINKS</text>
  <text x="535" y="401" font-family="Verdana,sans-serif" font-size="14" font-weight="bold" fill="#000" text-anchor="middle">EMAIL ME</text>
  <text x="400" y="462" font-family="'Courier New',monospace" font-size="16" fill="#8b0000" text-anchor="middle">Last updated: 04/02/2026</text>
</svg>
